<svg aria-hidden="true" style="position: absolute; width: 0; height: 0; overflow: hidden;" version="1.1" xmlns="http://www.w3.org/2000/svg" xmlns:xlink="http://www.w3.org/1999/xlink">
<defs>
<symbol id="icon-twitter" viewBox="0 0 38 32">
<path d="M37.647 3.369c-1.412 0.621-2.899 1.035-4.461 1.224 1.6-0.96 2.824-2.447 3.407-4.273-1.506 0.904-3.144 1.525-4.894 1.882-1.419-1.503-3.423-2.44-5.646-2.447h-0.001c-4.262 0-7.718 3.455-7.718 7.718v0c0 0.621 0.056 1.205 0.188 1.769-6.433-0.325-12.091-3.387-15.874-8.035l-0.031-0.040c-0.678 1.148-1.054 2.466-1.054 3.896 0 2.673 1.374 5.045 3.426 6.419-1.242-0.019-2.466-0.395-3.482-0.96v0.094c0 3.746 2.673 6.852 6.174 7.586-0.621 0.169-1.318 0.245-2.014 0.245-0.508 0-0.998-0.019-1.468-0.132 1.023 3.090 3.847 5.296 7.199 5.383l0.010 0c-2.606 2.053-5.936 3.292-9.556 3.292-0.652 0-1.296-0.040-1.927-0.119l0.076 0.008c3.407 2.202 7.454 3.464 11.84 3.464 14.193 0 21.948-11.765 21.948-21.967 0-0.339 0-0.659-0.019-0.998 1.525-1.092 2.824-2.447 3.878-4.009z"></path>
</symbol>
<symbol id="icon-linkedin" viewBox="0 0 32 32">
<path d="M31.984 32v-0.016h0.016v-11.728c0-5.744-1.248-10.16-7.952-10.16-3.232 0-5.392 1.76-6.272 3.44h-0.096v-2.912h-6.368v21.36h6.624v-10.576c0-2.784 0.528-5.472 3.984-5.472 3.392 0 3.44 3.184 3.44 5.648v10.416h6.624zM0.528 10.624h6.624v21.36h-6.624v-21.36zM3.84 0c-2.128 0-3.84 1.712-3.84 3.84 0 2.112 1.712 3.872 3.84 3.872 2.112 0 3.84-1.76 3.84-3.872 0-2.121-1.719-3.84-3.84-3.84v0z"></path>
</symbol>
<symbol id="icon-instagram" viewBox="0 0 32 32">
<path d="M31.968 9.408c-0.080-1.712-0.352-2.88-0.752-3.888-0.4-1.072-1.024-2.032-1.856-2.848-0.8-0.8-1.76-1.44-2.832-1.84-1.008-0.384-2.176-0.672-3.872-0.736-1.712-0.080-2.256-0.096-6.608-0.096-4.336 0-4.88 0.016-6.592 0.080-1.696 0.080-2.864 0.352-3.888 0.752-1.072 0.4-2.032 1.024-2.832 1.84-0.816 0.816-1.44 1.776-1.84 2.832-0.4 1.024-0.672 2.192-0.752 3.888-0.080 1.712-0.096 2.256-0.096 6.608 0 4.336 0.016 4.88 0.096 6.592 0.080 1.696 0.352 2.864 0.736 3.888 0.416 1.072 1.040 2.032 1.856 2.832 0.8 0.816 1.776 1.44 2.832 1.84 1.024 0.4 2.176 0.672 3.888 0.752 1.696 0.064 2.24 0.080 6.592 0.080 4.336 0 4.88-0.016 6.592-0.080 1.696-0.080 2.864-0.352 3.888-0.752 2.151-0.851 3.821-2.521 4.653-4.617l0.019-0.055c0.4-1.024 0.672-2.192 0.752-3.888 0.064-1.712 0.096-2.256 0.096-6.592 0-4.352-0.016-4.896-0.080-6.592zM29.072 22.464c-0.064 1.568-0.32 2.4-0.544 2.976-0.544 1.392-1.648 2.496-3.040 3.040-0.56 0.208-1.408 0.48-2.96 0.544-1.696 0.080-2.208 0.096-6.464 0.096-4.272 0-4.784-0.016-6.464-0.096-1.568-0.064-2.416-0.336-2.976-0.544-0.688-0.256-1.328-0.672-1.84-1.2-0.509-0.507-0.912-1.121-1.172-1.805l-0.012-0.035c-0.224-0.56-0.496-1.408-0.56-2.976-0.080-1.68-0.096-2.192-0.096-6.464 0-4.256 0.016-4.768 0.096-6.464 0.064-1.552 0.336-2.4 0.56-2.96 0.256-0.688 0.656-1.328 1.2-1.84 0.512-0.528 1.136-0.944 1.824-1.2 0.576-0.208 1.424-0.48 2.976-0.544 1.68-0.080 2.192-0.096 6.464-0.096s4.784 0.016 6.464 0.096c1.568 0.064 2.4 0.336 2.976 0.544 0.688 0.256 1.312 0.672 1.824 1.2 0.544 0.512 0.944 1.152 1.2 1.84 0.224 0.56 0.48 1.408 0.544 2.96 0.080 1.696 0.096 2.208 0.096 6.464 0 4.272-0.016 4.784-0.096 6.464z"></path>
<path d="M16.048 7.776c-4.528 0-8.224 3.68-8.224 8.224 0 4.528 3.696 8.208 8.224 8.208 4.544 0 8.224-3.68 8.224-8.208 0-4.544-3.68-8.224-8.224-8.224zM16.048 21.328c-2.944 0-5.328-2.384-5.328-5.328s2.384-5.344 5.328-5.344 5.328 2.4 5.328 5.344c0 2.944-2.384 5.328-5.328 5.328zM26.512 7.456c0 1.056-0.848 1.92-1.92 1.92-1.056 0-1.92-0.864-1.92-1.92 0-1.072 0.864-1.92 1.92-1.92 1.072 0 1.92 0.848 1.92 1.92z"></path>
</symbol>
<symbol id="icon-facebook" viewBox="0 0 32 32">
<path d="M21.328 5.312h2.912v-5.088c-0.496-0.080-2.24-0.224-4.256-0.224-4.208 0-7.088 2.64-7.088 7.504v4.496h-4.656v5.68h4.656v14.32h5.696v-14.32h4.448l0.72-5.68h-5.168v-3.92c0-1.648 0.432-2.768 2.736-2.768z"></path>
</symbol>
<symbol id="icon-sixth" viewBox="0 0 68 32">
<path d="M34.487 14.836c-0.32-0.429-0.48-0.931-0.436-1.447v-2.095c0-0.64 0.145-1.127 0.436-1.462s0.793-0.502 1.498-0.502c0.669 0 1.142 0.145 1.425 0.429 0.305 0.364 0.451 0.807 0.415 1.251v0.495h-1.193v-0.502c0.007-0.16-0.007-0.327-0.036-0.487-0.019-0.118-0.079-0.22-0.166-0.29l-0.001-0.001c-0.105-0.070-0.234-0.111-0.373-0.111-0.020 0-0.039 0.001-0.059 0.002l0.003-0c-0.019-0.002-0.041-0.003-0.064-0.003-0.147 0-0.284 0.045-0.397 0.121l0.003-0.002c-0.102 0.087-0.175 0.196-0.196 0.32-0.036 0.175-0.051 0.342-0.051 0.516v2.545c-0.015 0.247 0.036 0.495 0.153 0.72 0.065 0.073 0.145 0.131 0.24 0.167s0.204 0.051 0.313 0.044c0.153 0.007 0.298-0.029 0.422-0.116 0.095-0.080 0.16-0.189 0.175-0.313 0.029-0.167 0.044-0.335 0.036-0.509v-0.516h1.193v0.473c0.036 0.465-0.109 0.931-0.407 1.316-0.276 0.313-0.742 0.473-1.433 0.473-0.684 0-1.207-0.167-1.498-0.516zM39.455 14.858c-0.298-0.327-0.451-0.8-0.451-1.433v-2.204c0-0.618 0.153-1.091 0.451-1.411 0.305-0.32 0.807-0.48 1.513-0.48s1.207 0.16 1.505 0.48c0.298 0.32 0.458 0.793 0.458 1.411v2.204c0 0.625-0.16 1.105-0.465 1.433s-0.8 0.495-1.498 0.495c-0.691 0-1.207-0.167-1.513-0.495zM41.527 14.335c0.102-0.211 0.153-0.429 0.138-0.655v-2.705c0.015-0.218-0.029-0.436-0.138-0.64-0.058-0.073-0.145-0.138-0.247-0.175-0.095-0.036-0.204-0.051-0.313-0.036-0.025-0.004-0.054-0.006-0.084-0.006-0.19 0-0.36 0.084-0.476 0.216l-0.001 0.001c-0.109 0.204-0.16 0.422-0.145 0.64v2.72c-0.015 0.218 0.036 0.444 0.145 0.647 0.073 0.073 0.153 0.124 0.255 0.167 0.095 0.036 0.196 0.051 0.305 0.051 0.102 0 0.211-0.015 0.305-0.051 0.095-0.044 0.182-0.095 0.255-0.167v-0.007zM44.364 9.396h1.287l0.96 4.065 0.989-4.065h1.251l0.124 5.876h-0.924l-0.095-4.087-0.953 4.087h-0.742l-0.989-4.102-0.095 4.102h-0.931l0.116-5.876zM50.422 9.396h2c1.149 0 1.731 0.553 1.731 1.665 0 1.069-0.611 1.6-1.825 1.6h-0.684v2.611h-1.229l0.007-5.876zM52.131 11.905c0.116 0.015 0.24 0.007 0.364-0.029 0.116-0.029 0.225-0.087 0.313-0.153 0.145-0.204 0.204-0.436 0.175-0.669 0.007-0.175-0.007-0.356-0.058-0.531-0.015-0.063-0.046-0.117-0.087-0.16l0 0c-0.043-0.050-0.097-0.089-0.157-0.115l-0.003-0.001c-0.167-0.073-0.356-0.109-0.545-0.095h-0.48v1.753h0.48zM55.927 9.396h1.331l1.36 5.876h-1.149l-0.269-1.36h-1.185l-0.276 1.36h-1.171l1.36-5.876zM57.062 13.236l-0.458-2.465-0.465 2.465h0.924zM59.716 9.396h0.865l1.658 3.353v-3.353h1.025v5.876h-0.822l-1.665-3.498v3.498h-1.062v-5.876zM65.665 13.033l-1.375-3.629h1.156l0.844 2.327 0.785-2.327h1.135l-1.36 3.629v2.24h-1.185v-2.24zM36.393 17.84v0.305h-1.004v2.385h-0.422v-2.385h-1.018v-0.305h2.444zM39.556 20.531h-0.327c-0.036 0-0.065-0.007-0.095-0.022-0.021-0.018-0.038-0.040-0.050-0.064l-0.001-0.001-0.291-0.64h-1.396l-0.298 0.64c-0.007 0.029-0.022 0.051-0.044 0.073s-0.058 0.029-0.087 0.029h-0.327l1.236-2.698h0.429l1.251 2.684zM37.505 19.535h1.171l-0.495-1.098c-0.036-0.087-0.065-0.167-0.095-0.255-0.015 0.051-0.029 0.102-0.044 0.145l-0.044 0.109-0.495 1.098zM41.687 20.269h0.233c0.065-0.007 0.131-0.022 0.196-0.036 0.058-0.007 0.116-0.029 0.175-0.044 0.058-0.022 0.109-0.044 0.167-0.073v-0.604h-0.531c-0.011-0.006-0.021-0.013-0.029-0.022l-0.022-0.022c0-0.007-0.007-0.015-0.007-0.022v-0.211h0.96v1.033c-0.148 0.097-0.321 0.173-0.505 0.216l-0.011 0.002c-0.102 0.029-0.211 0.044-0.313 0.058-0.116 0.007-0.24 0.015-0.356 0.015-0.218 0-0.429-0.029-0.625-0.102-0.189-0.058-0.356-0.16-0.495-0.276-0.138-0.124-0.247-0.269-0.32-0.429-0.074-0.163-0.116-0.354-0.116-0.555 0-0.002 0-0.003 0-0.005v0c0-0.189 0.036-0.378 0.116-0.56 0.073-0.16 0.175-0.305 0.32-0.429 0.138-0.124 0.305-0.218 0.495-0.276 0.211-0.073 0.436-0.102 0.662-0.102 0.109 0 0.225 0.007 0.342 0.022 0.102 0.015 0.196 0.036 0.291 0.073 0.087 0.022 0.175 0.058 0.247 0.102 0.080 0.044 0.153 0.087 0.218 0.145l-0.124 0.16c-0.008 0.016-0.021 0.028-0.036 0.036l-0 0c-0.015 0.015-0.036 0.015-0.058 0.015-0.029 0-0.051-0.007-0.073-0.015-0.036-0.022-0.080-0.044-0.124-0.065-0.048-0.030-0.104-0.054-0.162-0.072l-0.005-0.001c-0.073-0.029-0.145-0.051-0.225-0.058-0.102-0.022-0.211-0.029-0.313-0.029-0.167 0-0.327 0.029-0.48 0.080-0.138 0.044-0.262 0.116-0.364 0.211s-0.175 0.211-0.225 0.335c-0.109 0.291-0.109 0.604 0 0.895 0.051 0.131 0.138 0.247 0.247 0.342 0.102 0.095 0.225 0.167 0.356 0.211 0.16 0.051 0.327 0.065 0.495 0.058zM45.622 20.225h1.353v0.305h-1.767v-2.691h0.422l-0.007 2.385zM48.378 20.531h-0.429v-2.691h0.429v2.691zM49.949 17.847c0.022 0.015 0.044 0.029 0.058 0.051l1.811 2.029c-0.003-0.014-0.005-0.030-0.005-0.047s0.002-0.033 0.006-0.049l-0 0.001v-2.007h0.364v2.705h-0.211c-0.029 0-0.058 0-0.087-0.015-0.028-0.013-0.052-0.030-0.073-0.051l0 0-1.804-2.029v2.095h-0.349v-2.691h0.218c0.022 0 0.051 0 0.073 0.007zM55.295 17.84v0.291h-1.498v0.895h1.215v0.284h-1.215v0.916h1.498v0.298h-1.935v-2.684h1.935zM11.025 1.2l18.756 4.596v16.116l-18.756-4.596v-16.116zM9.818-0.175v18.276l21.164 5.185v-18.269l-21.164-5.193z"></path>
<path d="M21.164 31.775l-21.164-5.193v-18.276l21.164 5.193v18.276z"></path>
<path d="M10.167 0.996l18.516 4.538-7.869 6.8-18.524-4.545 7.876-6.793zM9.818-0.175l-9.818 8.48 21.164 5.193 9.818-8.48-21.164-5.193zM22.356 30.742l8.625-7.447-8.625-2.124v9.571z"></path>
</symbol>
<symbol id="icon-fifth" viewBox="0 0 44 32">
<path d="M3.304 26.247c0.174 0.195 0.264 0.431 0.257 0.682 0.007 0.16-0.021 0.32-0.090 0.466-0.070 0.153-0.174 0.285-0.306 0.39-0.327 0.23-0.737 0.341-1.148 0.313h-2.017v-4.306h1.976c0.39-0.021 0.779 0.077 1.092 0.285 0.132 0.097 0.23 0.223 0.299 0.362s0.097 0.292 0.090 0.445c0.007 0.237-0.070 0.473-0.23 0.661-0.153 0.167-0.369 0.285-0.605 0.334 0.271 0.049 0.508 0.174 0.682 0.369zM0.939 25.6h0.842c0.195 0.007 0.383-0.042 0.536-0.146 0.070-0.056 0.118-0.118 0.146-0.188 0.035-0.077 0.049-0.153 0.042-0.237 0-0.077-0.007-0.153-0.042-0.223-0.031-0.078-0.078-0.143-0.138-0.194l-0.001-0.001c-0.136-0.093-0.304-0.149-0.485-0.149-0.025 0-0.050 0.001-0.075 0.003l0.003-0h-0.828v1.134zM2.4 27.249c0.070-0.056 0.125-0.118 0.16-0.195s0.049-0.16 0.042-0.243c0.001-0.012 0.002-0.027 0.002-0.041 0-0.074-0.019-0.144-0.052-0.204l0.001 0.002c-0.034-0.079-0.086-0.145-0.152-0.194l-0.001-0.001c-0.143-0.102-0.321-0.162-0.513-0.162-0.023 0-0.045 0.001-0.068 0.003l0.003-0h-0.883v1.183h0.897c0.202 0.014 0.403-0.042 0.563-0.146zM7.353 28.097l-1.106-1.683h-0.41v1.683h-0.946v-4.306h1.788c0.452-0.028 0.904 0.104 1.252 0.369 0.25 0.23 0.403 0.543 0.424 0.87 0.028 0.327-0.077 0.647-0.292 0.911-0.223 0.23-0.522 0.383-0.856 0.438l1.176 1.718h-1.030zM5.837 25.83h0.772c0.543 0 0.807-0.216 0.807-0.654 0.001-0.013 0.002-0.029 0.002-0.044 0-0.077-0.016-0.15-0.045-0.217l0.001 0.003c-0.035-0.083-0.083-0.16-0.153-0.23-0.174-0.125-0.39-0.188-0.612-0.174h-0.779l0.007 1.315zM12.529 27.235h-1.892l-0.334 0.863h-0.988l1.732-4.257h1.071l1.725 4.257h-0.995l-0.32-0.863zM12.271 26.581l-0.689-1.823-0.689 1.823h1.377zM19.005 28.097h-0.939l-2.108-2.929v2.929h-0.939v-4.306h0.939l2.108 2.943v-2.943h0.939v4.306zM24.369 27.068c-0.195 0.327-0.494 0.591-0.849 0.758-0.41 0.188-0.87 0.285-1.322 0.271h-1.677v-4.306h1.677c0.452-0.014 0.911 0.083 1.322 0.264 0.355 0.167 0.654 0.431 0.849 0.751 0.195 0.348 0.292 0.737 0.292 1.134 0 0.39-0.097 0.779-0.292 1.127zM23.29 26.963c0.271-0.285 0.417-0.647 0.417-1.030 0-0.376-0.146-0.737-0.417-1.023-0.32-0.264-0.744-0.397-1.176-0.369h-0.654v2.79h0.654c0.431 0.021 0.856-0.111 1.176-0.369zM13.113-0.167s12.132 4.195 11.875 10.261v10.268s-12.125-4.195-11.868-10.268l-0.007-10.261zM35.798 17.955c2.289-1.44 4.939-2.337 7.701-2.602v-3.207c-3.186 1.12-5.885 3.158-7.701 5.809z"></path>
<path d="M34.421 18.922c1.871-3.457 5.127-6.122 9.085-7.45v-9.259s-17.28 5.976-16.911 14.616v14.616s0.765-0.271 1.976-0.772c0-0.466 0-0.939 0.056-1.412 0.362-4.014 2.442-7.729 5.795-10.337z"></path>
<path d="M32.772 24.355c0.097-1.016 0.299-2.017 0.605-2.991-2.087 2.247-3.346 5.043-3.61 7.986-0.028 0.271-0.042 0.55-0.049 0.842 0.988-0.431 2.129-0.974 3.325-1.607-0.306-1.391-0.397-2.817-0.271-4.23zM33.461 24.403c-0.111 1.28-0.042 2.574 0.216 3.833 4.717-2.588 10.024-6.581 9.823-11.409v-0.424c-3.374 0.348-6.532 1.697-8.981 3.847-0.577 1.329-0.932 2.727-1.057 4.153z"></path>
</symbol>
<symbol id="icon-fourth" viewBox="0 0 66 32">
<path d="M10.256 9.444c1.873 0 3.387 1.35 3.387 3.013s-1.514 3.013-3.387 3.013-3.387-1.35-3.387-3.013 1.514-3.013 3.387-3.013z"></path>
<path d="M35.27 8.476c-0.008-2.31-1.038-4.519-2.88-6.158-1.834-1.631-4.324-2.552-6.931-2.56-2.599 0.008-5.089 0.929-6.931 2.56-1.834 1.639-2.872 3.848-2.88 6.158v12.745s19.621-1.943 19.621-12.738v-0.008zM0 25.397c0 1.608 0.718 3.153 1.998 4.285 1.28 1.14 3.013 1.779 4.823 1.787 1.811-0.008 3.543-0.648 4.816-1.779 1.28-1.14 2.006-2.677 2.006-4.285v-8.866s-13.643 1.35-13.643 8.859zM6.821 26.989c-0.351 0-0.702-0.094-0.991-0.265-0.297-0.18-0.523-0.421-0.663-0.718-0.084-0.18-0.133-0.39-0.133-0.611 0-0.107 0.011-0.211 0.033-0.311l-0.002 0.010c0.070-0.312 0.242-0.593 0.492-0.812 0.25-0.226 0.57-0.375 0.913-0.437 0.351-0.062 0.71-0.031 1.038 0.086 0.32 0.125 0.601 0.328 0.796 0.585 0.195 0.265 0.304 0.57 0.304 0.882 0 0.211-0.047 0.421-0.133 0.617-0.201 0.4-0.541 0.705-0.956 0.855l-0.012 0.004c-0.219 0.078-0.453 0.125-0.687 0.125v-0.008z"></path>
<path d="M23.735 26.747q0.18-0.367 0.18-0.859v-0.148q0-0.492-0.18-0.866-0.133-0.281-0.351-0.468-0.070-0.055-0.148-0.109-0.070-0.039-0.14-0.070-0.273-0.125-0.601-0.125t-0.601 0.125q-0.070 0.031-0.14 0.070-0.078 0.055-0.148 0.109-0.219 0.187-0.351 0.468-0.18 0.375-0.18 0.866v0.164q0.008 0.476 0.187 0.851 0.125 0.265 0.336 0.445 0.078 0.070 0.164 0.125 0.070 0.039 0.148 0.078 0.273 0.117 0.593 0.117 0.336 0 0.609-0.133 0.070-0.031 0.133-0.070 0.086-0.055 0.172-0.125 0.195-0.18 0.32-0.445zM26.076 26.388q0.062 0.086 0.062 0.211 0 0.101-0.047 0.18-0.031 0.055-0.094 0.101-0.133 0.101-0.382 0.101-0.382 0-0.546-0.195-0.109-0.133-0.109-0.359h-0.687q0 0.242 0.094 0.437 0.031 0.070 0.070 0.133l0.008 0.008q0.164 0.234 0.476 0.375t0.695 0.14q0.554 0 0.882-0.242 0.14-0.109 0.219-0.25 0.109-0.187 0.109-0.429 0-0.219-0.086-0.398-0.062-0.14-0.18-0.25-0.273-0.265-0.859-0.437-0.312-0.101-0.476-0.211-0.117-0.078-0.148-0.18-0.016-0.047-0.016-0.094 0-0.086 0.031-0.148 0.039-0.078 0.109-0.133 0.14-0.101 0.39-0.101 0.258 0 0.406 0.125 0.031 0.031 0.062 0.070 0.078 0.117 0.078 0.289h0.687q0-0.211-0.070-0.382-0.039-0.078-0.086-0.156-0.031-0.047-0.070-0.094-0.14-0.172-0.359-0.273-0.281-0.125-0.64-0.125-0.351 0-0.64 0.117-0.281 0.117-0.437 0.328-0.062 0.086-0.094 0.187-0.055 0.14-0.055 0.297t0.047 0.297q0.125 0.312 0.523 0.531 0.203 0.109 0.562 0.226t0.492 0.219q0.047 0.039 0.078 0.086zM52.862 26.388q0.062 0.086 0.062 0.211 0 0.101-0.047 0.18-0.031 0.055-0.094 0.101-0.141 0.101-0.382 0.101-0.382 0-0.546-0.195-0.109-0.133-0.109-0.359h-0.687q0 0.242 0.086 0.437 0.031 0.070 0.078 0.133l0.008 0.008q0.164 0.234 0.468 0.375 0.32 0.14 0.702 0.14 0.554 0 0.882-0.242 0.141-0.109 0.219-0.25 0.109-0.187 0.109-0.429 0-0.219-0.086-0.398-0.070-0.14-0.179-0.25-0.273-0.265-0.859-0.437-0.312-0.101-0.476-0.211-0.117-0.078-0.156-0.18-0.008-0.047-0.008-0.094 0-0.086 0.031-0.148 0.031-0.078 0.109-0.133 0.133-0.101 0.39-0.101t0.398 0.125q0.039 0.031 0.070 0.070 0.078 0.117 0.078 0.289h0.687q0-0.211-0.078-0.382-0.031-0.078-0.078-0.156-0.031-0.047-0.070-0.094-0.141-0.172-0.359-0.273-0.281-0.125-0.64-0.125-0.351 0-0.64 0.117-0.281 0.117-0.437 0.328-0.062 0.086-0.094 0.187-0.055 0.14-0.055 0.297t0.047 0.297q0.125 0.312 0.515 0.531 0.211 0.109 0.57 0.226 0.351 0.117 0.492 0.219 0.047 0.039 0.078 0.086zM19.301 26.115h1.311v-0.554h-1.311v-0.859h1.475v-0.554h-2.162v3.325h0.687v-1.358zM28.777 24.702h1.022v-0.554h-2.716v0.554h1.007v2.771h0.687v-2.771zM30.876 26.029h1.311v-0.539h-1.311v-0.788h1.538v-0.554h-2.224v3.325h2.232v-0.546h-1.545v-0.898zM33.506 26.256h0.546l0.624 1.218h0.734v-0.031l-0.718-1.358q0.297-0.133 0.445-0.367 0.148-0.226 0.148-0.562t-0.156-0.57q-0.062-0.094-0.164-0.18-0.32-0.258-0.905-0.258h-1.241v3.325h0.687v-1.218zM37.659 27.473v-1.171h0.601q0.593 0 0.929-0.281 0.117-0.101 0.195-0.226 0.141-0.226 0.141-0.546 0-0.258-0.094-0.468-0.023-0.055-0.055-0.109-0.047-0.070-0.109-0.14-0.133-0.148-0.336-0.25-0.281-0.133-0.656-0.133h-1.303v3.325h0.687zM40.679 26.029h1.319v-0.539h-1.319v-0.788h1.545v-0.554h-2.232v3.325h2.232v-0.546h-1.545v-0.898zM44.16 24.702h1.022v-0.554h-2.716v0.554h1.007v2.771h0.687v-2.771zM46.26 26.029h1.319v-0.539h-1.319v-0.788h1.538v-0.554h-2.224v3.325h2.232v-0.546h-1.545v-0.898zM48.89 26.256h0.546l0.624 1.218h0.741v-0.031l-0.726-1.358q0.304-0.133 0.453-0.367 0.148-0.226 0.148-0.562t-0.156-0.57q-0.070-0.094-0.164-0.18-0.32-0.258-0.913-0.258h-1.233v3.325h0.679v-1.218zM23.032 24.937q0.187 0.273 0.187 0.796v0.164q-0.008 0.523-0.187 0.788-0.086 0.125-0.195 0.187-0.148 0.086-0.336 0.086-0.195 0-0.336-0.086-0.125-0.070-0.203-0.195-0.187-0.281-0.187-0.788v-0.164q0-0.523 0.187-0.788 0.078-0.117 0.195-0.187 0.14-0.086 0.336-0.086t0.336 0.086q0.117 0.070 0.203 0.187zM34.060 25.701h-0.554v-0.999h0.554q0.273 0 0.406 0.133 0.023 0.023 0.039 0.047 0.094 0.125 0.094 0.328 0 0.172-0.078 0.289-0.031 0.039-0.062 0.070l-0.008 0.008q-0.141 0.125-0.39 0.125zM38.275 25.748h-0.617v-1.046h0.632q0.203 0 0.336 0.101 0.031 0.023 0.062 0.055t0.055 0.070q0.086 0.133 0.086 0.32 0 0.195-0.086 0.312-0.023 0.031-0.055 0.055-0.141 0.133-0.414 0.133zM49.444 25.701h-0.554v-0.999h0.554q0.273 0 0.414 0.133l0.031 0.047q0.101 0.125 0.101 0.328 0 0.172-0.086 0.289-0.023 0.039-0.055 0.070-0.008 0-0.008 0.008-0.141 0.125-0.398 0.125z"></path>
</symbol>
<symbol id="icon-third" viewBox="0 0 34 32">
<path d="M4.995 31.298c0.016 0 0.023 0 0.039 0.008 0.008 0 0.016 0.008 0.031 0.016l0.164 0.164c-0.133 0.133-0.289 0.234-0.476 0.304-0.211 0.078-0.445 0.117-0.679 0.117-0.219 0-0.437-0.031-0.64-0.109-0.179-0.062-0.343-0.164-0.476-0.289-0.14-0.133-0.242-0.289-0.312-0.453-0.078-0.187-0.109-0.382-0.109-0.578s0.039-0.398 0.117-0.578c0.070-0.172 0.187-0.328 0.328-0.453 0.148-0.133 0.32-0.226 0.515-0.297 0.203-0.070 0.429-0.109 0.656-0.101 0.019-0.001 0.042-0.001 0.065-0.001 0.381 0 0.732 0.133 1.007 0.355l-0.003-0.002-0.148 0.18-0.031 0.031c-0.016 0.008-0.039 0.008-0.062 0.008-0.016 0-0.039-0.008-0.055-0.016l-0.078-0.047-0.109-0.062c-0.047-0.016-0.094-0.039-0.141-0.055-0.062-0.023-0.133-0.031-0.195-0.047-0.086-0.016-0.172-0.016-0.25-0.016-0.164-0.008-0.328 0.023-0.476 0.078-0.14 0.047-0.265 0.117-0.367 0.219-0.203 0.192-0.329 0.463-0.329 0.763 0 0.014 0 0.029 0.001 0.043l-0-0.002c-0.008 0.156 0.023 0.312 0.086 0.468 0.047 0.125 0.133 0.242 0.234 0.343 0.101 0.094 0.219 0.164 0.351 0.211 0.14 0.055 0.289 0.078 0.445 0.078 0.086 0 0.172-0.008 0.258-0.016 0.141-0.016 0.273-0.055 0.39-0.125 0.062-0.031 0.117-0.070 0.172-0.117 0.023-0.016 0.047-0.023 0.078-0.023zM9.912 30.478c0 0.195-0.039 0.39-0.117 0.578-0.070 0.164-0.179 0.312-0.32 0.445-0.14 0.125-0.312 0.226-0.499 0.289-0.421 0.14-0.882 0.14-1.296 0-0.187-0.062-0.359-0.164-0.5-0.289-0.141-0.133-0.25-0.289-0.328-0.453-0.148-0.375-0.148-0.78 0-1.155 0.078-0.164 0.187-0.32 0.328-0.453 0.141-0.125 0.312-0.219 0.5-0.281 0.414-0.14 0.874-0.14 1.296 0 0.187 0.070 0.359 0.164 0.499 0.297 0.14 0.125 0.25 0.273 0.32 0.445 0.078 0.18 0.117 0.382 0.117 0.578zM9.467 30.478c0-0.156-0.023-0.312-0.086-0.46-0.047-0.133-0.125-0.25-0.226-0.351-0.101-0.092-0.22-0.166-0.351-0.216l-0.008-0.003c-0.304-0.101-0.64-0.101-0.937 0-0.141 0.055-0.265 0.125-0.367 0.219-0.101 0.101-0.179 0.219-0.226 0.351-0.109 0.297-0.109 0.624 0 0.921 0.047 0.125 0.125 0.25 0.226 0.343 0.101 0.101 0.226 0.172 0.367 0.219 0.297 0.101 0.632 0.101 0.937 0 0.14-0.047 0.258-0.117 0.359-0.219 0.101-0.094 0.18-0.219 0.226-0.343 0.062-0.148 0.086-0.304 0.086-0.46zM13.268 30.962l0.039 0.101c0.023-0.031 0.031-0.070 0.055-0.101 0.016-0.031 0.031-0.070 0.055-0.101l1.085-1.717c0.023-0.031 0.039-0.047 0.062-0.055 0.031-0.008 0.062-0.008 0.086-0.008h0.328v2.794h-0.382v-2.24l-1.093 1.741c-0.016 0.031-0.039 0.047-0.070 0.062-0.023 0.016-0.055 0.023-0.094 0.023h-0.055c-0.039 0-0.070-0.008-0.094-0.023-0.031-0.016-0.055-0.031-0.070-0.062l-1.124-1.748v2.24h-0.367v-2.786h0.32c0.031 0 0.062 0 0.094 0.008 0.023 0.008 0.047 0.031 0.055 0.055l1.116 1.717c0.016 0.031 0.039 0.070 0.055 0.101zM17.358 30.821v1.046h-0.429v-2.786h0.952c0.18-0.008 0.359 0.016 0.531 0.062 0.14 0.031 0.265 0.094 0.375 0.172 0.173 0.144 0.282 0.36 0.282 0.601 0 0.011-0 0.022-0.001 0.033l0-0.002c0.008 0.117-0.023 0.242-0.078 0.351-0.052 0.114-0.129 0.209-0.224 0.28l-0.002 0.001c-0.109 0.086-0.242 0.148-0.375 0.187-0.172 0.047-0.343 0.070-0.515 0.062l-0.515-0.008zM17.358 30.525h0.515c0.109 0 0.226-0.016 0.328-0.047 0.086-0.023 0.172-0.062 0.242-0.117 0.059-0.051 0.107-0.113 0.139-0.184l0.001-0.003c0.039-0.070 0.055-0.148 0.055-0.234 0-0.078-0.008-0.156-0.047-0.226-0.034-0.076-0.085-0.139-0.147-0.186l-0.001-0.001c-0.149-0.098-0.332-0.157-0.528-0.157-0.015 0-0.029 0-0.043 0.001l0.002-0h-0.515v1.155zM23.079 31.875h-0.336c-0.039 0-0.070-0.008-0.094-0.031-0.024-0.015-0.043-0.036-0.054-0.062l-0-0.001-0.289-0.671h-1.459l-0.297 0.671c-0.016 0.023-0.031 0.047-0.055 0.062-0.023 0.023-0.062 0.031-0.094 0.031h-0.336l1.272-2.794h0.445l1.296 2.794zM20.972 30.837h1.202l-0.507-1.14c-0.034-0.072-0.066-0.157-0.091-0.246l-0.003-0.012-0.055 0.14c-0.016 0.047-0.031 0.086-0.047 0.117l-0.5 1.139zM24.913 29.089c0.031 0.016 0.047 0.031 0.070 0.055l1.858 2.107v-2.17h0.382v2.794h-0.211c-0.031 0-0.062-0.008-0.094-0.016-0.023-0.016-0.047-0.031-0.062-0.055l-1.865-2.107c0.008 0.031 0.008 0.070 0 0.101v2.076h-0.375v-2.794h0.226c0.023 0 0.047 0 0.070 0.008zM30.361 30.759v1.116h-0.429v-1.116l-1.179-1.678h0.382c0.039 0 0.070 0.008 0.094 0.023s0.039 0.039 0.055 0.062l0.741 1.085c0.031 0.047 0.055 0.086 0.078 0.133l0.047 0.117 0.055-0.125c0.023-0.039 0.047-0.086 0.078-0.125l0.726-1.093c0.016-0.023 0.031-0.039 0.055-0.062 0.023-0.016 0.055-0.023 0.086-0.023h0.39l-1.179 1.686zM13.058 24.39c0.18 0.023 0.367 0.039 0.562 0.055 2.864-1.116 5.299-2.942 6.978-5.253 1.686-2.31 2.552-4.995 2.482-7.727l-3.161-2.755c0.64 2.911 0.343 5.916-0.874 8.687-1.21 2.771-3.286 5.19-5.986 6.993z"></path>
<path d="M11.926 24.265l0.086 0.016c2.888-1.803 5.097-4.308 6.322-7.204 1.233-2.896 1.436-6.049 0.585-9.046l-4.503-3.918c1.819 3.223 2.552 6.821 2.115 10.388s-2.037 6.954-4.605 9.764zM27.208 14.689c-0.765 3.005-2.622 5.713-5.299 7.719-0.78 0.593-1.623 1.116-2.521 1.577 2.178-0.562 4.183-1.545 5.861-2.88 1.67-1.335 2.966-2.989 3.785-4.831l-1.826-1.584z"></path>
<path d="M26.49 14.252l-2.599-2.263c-0.047 2.576-0.89 5.097-2.443 7.298-1.553 2.193-3.746 3.996-6.369 5.206h0.016c0.578 0 1.163-0.031 1.74-0.094 2.451-0.866 4.613-2.248 6.299-4.020s2.841-3.879 3.356-6.127zM12.3 2.466l-3.106-2.708c-2.771 0.937-5.159 2.576-6.845 4.706s-2.591 4.652-2.607 7.235c0.016 2.857 1.124 5.627 3.145 7.875 2.029 2.256 4.862 3.848 8.055 4.542 2.849-3.013 4.511-6.743 4.761-10.638 0.242-3.887-0.952-7.75-3.403-11.013zM33.67 13.83c-0.016-3.387-1.569-6.634-4.332-9.030-2.755-2.396-6.494-3.746-10.396-3.762-1.803 0-3.59 0.289-5.268 0.859l19.013 16.515c0.648-1.459 0.983-3.013 0.983-4.581z"></path>
</symbol>
<symbol id="icon-second" viewBox="0 0 25 32">
<path d="M10.447 1.806h0.084c0.156 0 0.324 0.015 0.49 0.030 0.807 0.058 1.552 0.175 2.274 0.348l-0.095-0.019v-1.762c-0.652-0.172-1.42-0.299-2.207-0.357l-0.042-0.002c-0.254-0.020-0.57-0.035-0.889-0.043l-0.021-0h-0.263c-1.523 0.006-3.040 0.201-4.514 0.582-1.68 0.418-3.293 1.075-4.79 1.948v17.474c1.312-0.729 2.832-1.338 4.431-1.749l0.135-0.029c1.123-0.3 2.433-0.51 3.779-0.587l0.053-0.002h0.052c0.217-0.011 0.433-0.017 0.655-0.018v-1.791c-1.78 0.024-3.493 0.264-5.129 0.695l0.147-0.033c-0.603 0.157-1.185 0.326-1.731 0.513l-0.623 0.212v-13.626l0.266-0.128c1.89-0.918 4.096-1.513 6.425-1.649l0.047-0.002c0.008-0.001 0.018-0.001 0.028-0.001s0.019 0 0.029 0.001l-0.001-0c0.248-0.012 0.497-0.018 0.742-0.018h0.28c0.129 0.003 0.258 0.006 0.388 0.014zM13.633 3.607c0.355 0.028 0.77 0.044 1.188 0.044 0.006 0 0.012 0 0.018 0h-0.001c1.689-0.007 3.324-0.228 4.881-0.639l-0.135 0.030c1.734-0.442 3.253-1.052 4.665-1.831l-0.101 0.051v17.163c-1.379 0.819-2.975 1.487-4.664 1.921l-0.127 0.028c-1.353 0.363-2.908 0.574-4.511 0.581h-0.004c-0.032 0-0.070 0-0.108 0-1.178 0-2.321-0.148-3.412-0.425l0.095 0.021v-17.274c0.265 0.061 0.537 0.117 0.814 0.164 0.455 0.077 0.934 0.133 1.401 0.167zM22.367 3.74l-0.623 0.209c-0.376 0.138-0.953 0.315-1.539 0.474l-0.192 0.044c-1.551 0.415-3.332 0.657-5.169 0.663h-0.004c-0.406 0-0.78-0.011-1.141-0.034l-0.497-0.033v14.017l0.426 0.037c0.363 0.033 0.785 0.052 1.212 0.052 0.001 0 0.002 0 0.003 0h-0c1.45-0.006 2.853-0.198 4.189-0.553l-0.116 0.026c1.221-0.31 2.281-0.702 3.285-1.189l-0.102 0.044 0.266-0.128v-13.63z"></path>
<path d="M1.68 25.975c-0.086-0.092-0.197-0.166-0.314-0.215-0.123-0.049-0.246-0.074-0.375-0.068-0.142 0-0.277 0.025-0.4 0.074-0.117 0.049-0.228 0.117-0.314 0.209-0.085 0.088-0.153 0.192-0.201 0.307l-0.002 0.007c-0.049 0.123-0.068 0.252-0.068 0.382v2.338c-0.006 0.166 0.025 0.326 0.092 0.48 0.055 0.117 0.135 0.222 0.234 0.308 0.092 0.080 0.203 0.135 0.32 0.166 0.111 0.037 0.228 0.049 0.345 0.049 0.135 0.006 0.258-0.025 0.382-0.080 0.117-0.049 0.222-0.123 0.308-0.215s0.16-0.197 0.203-0.314c0.049-0.117 0.080-0.246 0.080-0.369v-0.265h-0.615v0.209c0.006 0.074-0.006 0.142-0.031 0.209-0.025 0.050-0.056 0.092-0.092 0.129l0-0c-0.036 0.031-0.079 0.054-0.127 0.067l-0.002 0.001c-0.037 0.012-0.080 0.025-0.123 0.025-0.008 0.001-0.018 0.001-0.028 0.001-0.048 0-0.093-0.009-0.134-0.027l0.002 0.001c-0.054-0.021-0.098-0.058-0.129-0.104l-0.001-0.001c-0.051-0.082-0.081-0.182-0.081-0.289 0-0.009 0-0.018 0.001-0.027l-0 0.001v-2.172c-0.006-0.123 0.018-0.24 0.074-0.351 0.061-0.087 0.16-0.143 0.273-0.143 0.010 0 0.020 0 0.030 0.001l-0.001-0c0.049 0 0.105 0.012 0.148 0.031 0.049 0.025 0.092 0.062 0.123 0.105 0.068 0.086 0.105 0.197 0.098 0.308v0.203h0.603v-0.234c0.006-0.142-0.018-0.283-0.074-0.412-0.043-0.123-0.111-0.234-0.203-0.326zM5.305 25.945c-0.191-0.16-0.437-0.252-0.689-0.252-0.129 0-0.252 0.018-0.369 0.062s-0.228 0.111-0.32 0.191c-0.098 0.092-0.185 0.203-0.234 0.332-0.062 0.142-0.092 0.295-0.092 0.449v2.24c-0.006 0.16 0.025 0.314 0.092 0.455 0.055 0.123 0.135 0.228 0.234 0.314 0.092 0.086 0.203 0.154 0.32 0.197s0.24 0.068 0.369 0.068c0.265-0.002 0.506-0.102 0.69-0.266l-0.001 0.001c0.098-0.086 0.178-0.191 0.234-0.314 0.062-0.142 0.092-0.295 0.086-0.455v-2.24c0-0.011 0.001-0.023 0.001-0.036 0-0.293-0.123-0.558-0.32-0.745l-0-0zM5.022 28.966c0.006 0.062 0 0.117-0.025 0.178-0.018 0.055-0.055 0.105-0.098 0.148-0.080 0.068-0.178 0.105-0.283 0.105s-0.209-0.037-0.289-0.105c-0.041-0.041-0.074-0.090-0.097-0.145l-0.001-0.003c-0.016-0.044-0.026-0.096-0.026-0.149 0-0.010 0-0.020 0.001-0.031l-0 0.001v-2.24c-0.006-0.062 0.006-0.117 0.025-0.178 0.025-0.055 0.055-0.105 0.098-0.148 0.080-0.068 0.185-0.105 0.289-0.105s0.203 0.037 0.283 0.105c0.043 0.043 0.080 0.092 0.098 0.148 0.025 0.062 0.031 0.117 0.025 0.178v2.24zM10.068 29.963v-4.234h-0.585l-0.769 2.24h-0.012l-0.775-2.24h-0.585v4.234h0.609v-2.578h0.006l0.597 1.828h0.302l0.597-1.828h0.012v2.578h0.603zM13.508 26.025c-0.092-0.105-0.209-0.185-0.338-0.234-0.142-0.043-0.289-0.068-0.443-0.062h-0.898v4.234h0.603v-1.655h0.314c0.185 0.012 0.375-0.031 0.542-0.111 0.142-0.080 0.252-0.191 0.332-0.326 0.074-0.111 0.117-0.24 0.142-0.369 0.025-0.16 0.031-0.32 0.031-0.48 0.006-0.203-0.012-0.412-0.062-0.609-0.037-0.148-0.117-0.277-0.222-0.388zM13.2 27.317c-0.006 0.074-0.025 0.154-0.055 0.222-0.037 0.062-0.092 0.117-0.16 0.148-0.086 0.037-0.185 0.055-0.283 0.055h-0.277v-1.446h0.314c0.092 0 0.185 0.018 0.271 0.055 0.062 0.037 0.111 0.092 0.142 0.154 0.031 0.080 0.049 0.16 0.055 0.24v0.283c0 0.098 0.006 0.197 0 0.289h-0.006zM16.369 25.729h-0.492l-0.935 4.234h0.603l0.178-0.911h0.825l0.178 0.911h0.603l-0.96-4.234zM15.815 28.48l0.295-1.538h0.012l0.295 1.538h-0.603zM20.271 28.283h-0.006l-0.917-2.554h-0.578v4.234h0.603v-2.548h0.012l0.923 2.548h0.572v-4.234h-0.609v2.554zM23.963 25.729l-0.486 1.68h-0.012l-0.486-1.68h-0.64l0.831 2.443v1.791h0.603v-1.791l0.831-2.443h-0.64zM0 31.163h0.289v0.818h0.197v-0.818h0.289v-0.166h-0.775v0.166zM2.443 30.997l-0.382 0.985h0.209l0.080-0.228h0.394l0.086 0.228h0.215l-0.394-0.985h-0.209zM2.412 31.588l0.135-0.363 0.135 0.363h-0.271zM4.862 31.618h0.228v0.123c-0.068 0.055-0.148 0.086-0.234 0.086-0.037 0-0.080-0.006-0.117-0.025-0.037-0.015-0.068-0.038-0.092-0.067l-0-0c-0.046-0.073-0.074-0.162-0.074-0.257 0-0 0-0.001 0-0.001v0c0-0.222 0.098-0.332 0.289-0.332 0.049 0 0.098 0.012 0.135 0.037 0.043 0.031 0.074 0.074 0.086 0.123l0.191-0.037c-0.037-0.197-0.178-0.289-0.412-0.289-0.005-0-0.011-0-0.018-0-0.126 0-0.24 0.047-0.327 0.124l0.001-0c-0.049 0.049-0.092 0.111-0.117 0.178-0.025 0.062-0.031 0.135-0.025 0.203-0.006 0.135 0.037 0.265 0.123 0.369 0.049 0.049 0.105 0.086 0.172 0.111 0.062 0.025 0.135 0.037 0.203 0.031 0.154 0.006 0.302-0.049 0.418-0.154v-0.388h-0.431v0.166zM7.335 30.997h-0.203v0.985h0.689v-0.166h-0.486v-0.818z"></path>
<path d="M9.225 30.997h0.197v0.985h-0.197v-0.985z"></path>
<path d="M11.465 31.655l-0.4-0.658h-0.197v0.985h0.185v-0.646l0.4 0.646h0.197v-0.985h-0.185v0.658zM13.311 31.545h0.492v-0.166h-0.492v-0.215h0.529v-0.166h-0.726v0.985h0.745v-0.166h-0.548v-0.271zM17.791 31.385h-0.388v-0.388h-0.197v0.985h0.197v-0.431h0.388v0.431h0.197v-0.985h-0.197v0.388zM19.649 31.545h0.486v-0.166h-0.486v-0.215h0.529v-0.166h-0.732v0.985h0.751v-0.166h-0.548v-0.271zM22.166 31.545c0.172-0.025 0.258-0.117 0.258-0.271 0.002-0.010 0.002-0.021 0.002-0.032 0-0.033-0.008-0.065-0.021-0.092l0.001 0.001c-0.018-0.040-0.046-0.073-0.079-0.098l-0.001-0c-0.073-0.036-0.159-0.057-0.25-0.057-0.014 0-0.027 0-0.041 0.001l0.002-0h-0.412v0.985h0.197v-0.412h0.037c0.043-0.006 0.086 0.006 0.123 0.018 0.031 0.018 0.055 0.043 0.068 0.074l0.215 0.314h0.24l-0.123-0.191c-0.049-0.098-0.129-0.178-0.215-0.24zM21.963 31.409h-0.142v-0.246h0.154c0.068-0.006 0.135 0 0.203 0.025 0.012 0.012 0.025 0.025 0.031 0.043s0.012 0.037 0.012 0.055c-0.006 0.025-0.006 0.043-0.018 0.055-0.006 0.018-0.018 0.031-0.037 0.043-0.062 0.025-0.135 0.031-0.203 0.025zM24.062 31.545h0.492v-0.166h-0.492v-0.215h0.529v-0.166h-0.726v0.985h0.751v-0.166h-0.554v-0.271z"></path>
</symbol>
<symbol id="icon-first" viewBox="0 0 28 32">
<path d="M4.085 0l4.771 4.517-8.857-0.005v21.915h23.149v-8.379l4.766 4.512v-22.559h-23.83zM22.939 4.71v12.807l-13.528-12.807h13.528zM18.739 23.221h-15.076v-14.74h1.066v13.742h14.011v0.997zM10.805 30.605c-0.057 0.085-0.091 0.19-0.091 0.303 0 0.001 0 0.003 0 0.004v-0c0 0.204 0.072 0.37 0.214 0.497s0.336 0.19 0.575 0.19q0.269 0 0.482-0.109 0.071-0.037 0.136-0.086l0.136 0.161h0.468l-0.355-0.421q0.209-0.286 0.209-0.733h-0.351c0 0.163-0.034 0.31-0.101 0.443l-0.468-0.552 0.165-0.12c0.1-0.068 0.184-0.152 0.249-0.249l0.002-0.003c0.048-0.079 0.076-0.174 0.076-0.275 0-0.001 0-0.003 0-0.004v0q0-0.115-0.042-0.211t-0.127-0.173c-0.108-0.097-0.251-0.157-0.408-0.157-0.008 0-0.017 0-0.025 0l0.001-0c-0.195 0-0.35 0.056-0.465 0.166s-0.173 0.259-0.173 0.449c0 0.078 0.018 0.158 0.054 0.241 0.038 0.083 0.104 0.184 0.197 0.302-0.179 0.129-0.3 0.24-0.36 0.334zM15.403 31.382c0.166-0.145 0.261-0.347 0.286-0.605h-0.419c-0.022 0.172-0.075 0.296-0.158 0.37s-0.208 0.112-0.372 0.112c-0.18 0-0.318-0.069-0.412-0.206q-0.14-0.206-0.14-0.599v-0.214c0.003-0.259 0.052-0.453 0.15-0.587 0.099-0.134 0.24-0.201 0.422-0.201 0.157 0 0.276 0.039 0.357 0.116s0.133 0.202 0.153 0.376h0.419c-0.027-0.265-0.121-0.47-0.285-0.615s-0.378-0.218-0.645-0.218c-0.198 0-0.373 0.048-0.525 0.142-0.152 0.097-0.271 0.234-0.345 0.396l-0.002 0.006c-0.077 0.169-0.122 0.367-0.122 0.575 0 0.010 0 0.020 0 0.030l-0-0.002v0.226c0.003 0.223 0.045 0.418 0.125 0.587s0.193 0.298 0.339 0.39c0.148 0.091 0.318 0.136 0.511 0.136 0.276 0 0.497-0.072 0.663-0.216zM17.874 31.043c0.082-0.179 0.123-0.388 0.123-0.625v-0.134c0-0.007 0-0.016 0-0.024 0-0.216-0.047-0.421-0.131-0.605l0.004 0.009q-0.095-0.206-0.254-0.338-0.048-0.039-0.099-0.072c-0.152-0.095-0.327-0.143-0.524-0.143s-0.372 0.048-0.525 0.145q-0.041 0.025-0.078 0.055-0.172 0.136-0.276 0.359c-0.079 0.175-0.125 0.38-0.125 0.595 0 0.011 0 0.021 0 0.032l-0-0.002v0.136c0.001 0.232 0.043 0.436 0.126 0.613 0.084 0.178 0.203 0.315 0.356 0.411 0.154 0.095 0.329 0.143 0.525 0.143 0.199 0 0.374-0.048 0.526-0.143 0.152-0.097 0.27-0.234 0.352-0.413zM7.224 29.146l-0.557 1.147-0.557-1.147h-0.467l0.813 1.529v0.891h0.422v-0.891l0.811-1.529h-0.465zM7.924 31.566l0.196-0.564h0.938l0.197 0.564h0.439l-0.916-2.42h-0.378l-0.914 2.42h0.437zM11.464 30.068c-0.114-0.141-0.172-0.257-0.172-0.351 0-0.081 0.024-0.148 0.070-0.202 0.044-0.049 0.107-0.080 0.177-0.080 0.004 0 0.007 0 0.011 0l-0.001-0c0.003-0 0.006-0 0.009-0 0.067 0 0.127 0.026 0.173 0.068l-0-0c0.048 0.045 0.072 0.099 0.072 0.161 0 0.002 0 0.005 0 0.008 0 0.090-0.040 0.171-0.103 0.226l-0 0-0.052 0.042-0.184 0.126zM17.425 29.676c0.102 0.143 0.152 0.349 0.152 0.617v0.126c0 0.272-0.050 0.48-0.151 0.622-0.099 0.142-0.242 0.213-0.429 0.213-0.005 0-0.011 0-0.017 0-0.171 0-0.323-0.086-0.413-0.216l-0.001-0.002c-0.104-0.145-0.155-0.351-0.155-0.617v-0.14c0.002-0.26 0.054-0.462 0.156-0.603 0.091-0.13 0.24-0.215 0.409-0.215 0.006 0 0.012 0 0.018 0l-0.001-0c0.187 0 0.33 0.072 0.431 0.214zM8.588 29.659l0.351 1.004h-0.701l0.351-1.004zM11.898 31.141c-0.104 0.084-0.237 0.135-0.382 0.136h-0q-0.148 0-0.246-0.069-0.022-0.016-0.043-0.035c-0.067-0.066-0.108-0.157-0.108-0.259 0-0.005 0-0.009 0-0.014l-0 0.001c0-0.129 0.067-0.245 0.2-0.346l0.052-0.037 0.528 0.624z"></path>
</symbol>
</defs>
</svg>
